<svg xmlns="http://www.w3.org/2000/svg" width="1667" height="82" viewBox="0 0 1667 82"><defs><clipPath id="5ao0a"><path d="M0 40.79s509.149-19.774 762.39 19.718C1015.63 100 1560.792 82.66 1633.795 27.225c73.003-55.436-.026-9.225-.026-9.225H0z"/></clipPath></defs><g><g><path fill="#fff" d="M0 40.79s509.149-19.774 762.39 19.718C1015.63 100 1560.792 82.66 1633.795 27.225c73.003-55.436-.026-9.225-.026-9.225H0z"/></g><g clip-path="url(#5ao0a)"><path fill="#50e3c2" d="M139 131.048s377.947-48.23 473.575-61.96C708.202 55.356 1041 23.311 1245.273 32.692c204.273 9.38 332.243 60.668 436.679 36.394 104.436-24.273 124.52-29.394 124.52-29.394v107.355H139z"/></g></g></svg>