<?xml version="1.0" encoding="UTF-8"?>
<!DOCTYPE svg PUBLIC "-//W3C//DTD SVG 1.1//EN" "http://www.w3.org/Graphics/SVG/1.1/DTD/svg11.dtd">
<!-- Creator: CorelDRAW 2019 (64-Bit) -->
<svg xmlns="http://www.w3.org/2000/svg" xml:space="preserve" width="105.584mm" height="110.528mm" version="1.1" style="shape-rendering:geometricPrecision; text-rendering:geometricPrecision; image-rendering:optimizeQuality; fill-rule:evenodd; clip-rule:evenodd"
viewBox="0 0 8870.78 9286.15"
 xmlns:xlink="http://www.w3.org/1999/xlink"
 xmlns:xodm="http://www.corel.com/coreldraw/odm/2003">
 <defs>
  <style type="text/css">
   <![CDATA[
    .fil0 {fill:black}
    .fil2 {fill:black}
    .fil1 {fill:white}
   ]]>
  </style>
    <mask id="id0">
  <linearGradient id="id1" gradientUnits="userSpaceOnUse" x1="6663.27" y1="7292.72" x2="7253.15" y2="9360.84">
   <stop offset="0" style="stop-opacity:1; stop-color:white"/>
   <stop offset="1" style="stop-opacity:0; stop-color:white"/>
  </linearGradient>
     <rect style="fill:url(#id1)" x="2495.05" y="4137.93" width="6375.93" height="5148.44"/>
    </mask>
    <mask id="id2">
  <linearGradient id="id3" gradientUnits="userSpaceOnUse" x1="6663.27" y1="7292.72" x2="7253.15" y2="9360.84">
   <stop offset="0" style="stop-opacity:1; stop-color:white"/>
   <stop offset="1" style="stop-opacity:0; stop-color:white"/>
  </linearGradient>
     <rect style="fill:url(#id3)" x="3421.95" y="6561.24" width="4355.81" height="1559.85"/>
    </mask>
    <mask id="id4">
  <linearGradient id="id5" gradientUnits="userSpaceOnUse" x1="3326.55" y1="6245.17" x2="3293.03" y2="7511.89">
   <stop offset="0" style="stop-opacity:1; stop-color:white"/>
   <stop offset="1" style="stop-opacity:0; stop-color:white"/>
  </linearGradient>
     <rect style="fill:url(#id5)" x="-0.21" y="4219.39" width="6589.79" height="3292.71"/>
    </mask>
    <mask id="id6">
  <linearGradient id="id7" gradientUnits="userSpaceOnUse" x1="3326.55" y1="6245.17" x2="3293.03" y2="7511.89">
   <stop offset="0" style="stop-opacity:1; stop-color:white"/>
   <stop offset="1" style="stop-opacity:0; stop-color:white"/>
  </linearGradient>
     <rect style="fill:url(#id7)" x="1416.39" y="-0.21" width="3753.29" height="3759.44"/>
    </mask>
 </defs>
 <g id="Layer_x0020_1">
  <metadata id="CorelCorpID_0Corel-Layer"/>
  <g id="_2469271800176">
   <path class="fil0" style="mask:url(#id0)" d="M7709.51 6561.45c38.86,166.76 119.18,353.01 21.42,527.38 -35.28,62.93 -100.46,117.51 -151.04,168.52 -54.56,55.01 -113.84,87.58 -176.63,129.61l-13.31 13.32 -79.88 39.95 -13.32 13.31c-47.43,11.05 -36.77,14.13 -72.39,34.14 -30.48,17.11 -32.88,15.27 -64.51,28.69 -49.35,20.95 -76.85,44.76 -129.4,57.01l-13.32 13.32c-88.4,20.59 -161.09,71.8 -252.97,93.21l-13.32 13.31c-75.63,6.29 -295.23,105.17 -375.57,130.4 -50.89,15.97 -72.83,17.79 -122.87,36.89l-658.25 180.59c-370.55,97.78 -673.97,78.19 -1066.88,78.19 -7.41,0 -21.73,0.27 -25.73,-0.89 -24.12,-6.94 -14.24,-3.68 -27.53,-12.43 -102.67,-2.29 -281.9,-53.7 -369.45,-83.24 -140.75,-47.51 -340.29,-138.54 -439.54,-239.51 -102.94,-104.72 -238.81,-253.98 -242.87,-436.19l0 -106.52c4.7,-56.41 29.52,-100.55 49.57,-150.15 53.91,-133.36 5.84,-92.01 56.95,-129.46 0,147.57 25.18,261.63 74.9,364.5 39.39,81.5 135.04,169.53 213.65,212.41 391.06,213.29 664.59,189.88 1109.26,168.48l1092.06 -199.48 13.32 -13.31c138.9,-11.56 302.74,-85.96 434.69,-124.54l393.46 -152.44c91.73,-41.89 155.32,-79.24 237.04,-122.47l13.32 -13.32c71.05,-37.6 265.21,-177.77 323.08,-236.14 96.27,-97.08 175.02,-182.18 262.77,-283.14 -2.09,-93.75 -59.06,-237.21 -66.59,-479.32l-60.7 -485.2c-37.38,-235.45 -118.09,-720.15 -183.94,-921.19 -54.6,-166.71 -58.61,-262.13 -233.89,-312.02 -132.55,-37.74 -178.49,46.62 -704.9,-120.61 -363.94,-115.62 -348.18,-104.09 -733.9,-104.96 -224.29,-0.51 -727.48,55.38 -957.11,134.7 -235.2,81.24 -458.5,319.29 -590.23,514.9 -262.77,390.17 -206.56,604.79 -358.35,1013.07 -24,64.55 -65.02,112.04 -95.59,184 -24.55,57.78 -51.41,152 -62.65,216.96 -12.91,74.6 -39.78,157.22 -39.78,239.83 -65.71,15.32 -225.85,106.37 -297.37,142.02 -311.21,155.11 -526.81,282.67 -701.3,630.18 -212.65,423.48 -111.08,1037.27 153.93,1390.71 90.45,120.65 231.31,213.52 361.2,291.22 54.71,32.72 87.05,50.62 146.24,80.13 668.01,332.96 1602.69,379.3 2300.12,227.45 63.03,-13.73 110.68,-30.42 170.94,-42.1l345.64 -93.74c58.1,-15.38 111.06,-38.21 166.34,-60.02 56.08,-22.13 100.9,-31.66 158.19,-54.85 57.26,-23.17 102.78,-41.3 161.54,-64.81 205.06,-82.02 734.95,-333.88 906.57,-438.22 45.21,-27.49 93.28,-51.77 136.41,-76.63l686.09 -432.36c47.97,-34.71 82.26,-62.01 129.27,-97.08 221.19,-165.03 480.08,-383.33 432.76,-680.12 -19.91,-124.92 -91.4,-122.98 -258.39,-181 -120.91,-41.99 -214.02,-78.18 -313.94,-138.75l-583.28 -282.2z"/>
   <path class="fil1" style="mask:url(#id2)" d="M7110.36 7080.72l-13.32 13.32c-81.71,43.23 -145.31,80.58 -237.04,122.47l-393.46 152.44c-131.95,38.58 -295.78,112.98 -434.69,124.54l-13.32 13.31 -1092.06 199.48c-444.67,21.4 -718.2,44.81 -1109.26,-168.48 -78.61,-42.88 -174.27,-130.91 -213.65,-212.41 -49.72,-102.87 -74.9,-216.93 -74.9,-364.5 -51.11,37.45 -3.04,-3.9 -56.95,129.46 -20.05,49.6 -44.87,93.75 -49.57,150.15l0 106.52c4.06,182.21 139.93,331.47 242.87,436.19 99.25,100.97 298.79,191.99 439.54,239.51 87.55,29.55 266.79,80.96 369.45,83.24 7.42,0 21.74,-0.26 25.73,0.89 24.12,6.94 14.24,3.69 27.52,12.43 392.9,0 696.33,19.58 1066.88,-78.19l658.25 -180.59c50.05,-19.11 71.99,-20.92 122.87,-36.89 80.35,-25.23 299.94,-124.11 375.57,-130.4l13.32 -13.31c91.88,-21.41 164.57,-72.62 252.97,-93.21l13.32 -13.32c52.55,-12.24 80.05,-36.05 129.4,-57.01 31.62,-13.43 34.03,-11.58 64.51,-28.69 35.61,-20 24.96,-23.09 72.39,-34.14l13.32 -13.31 79.88 -39.95 13.31 -13.32c62.79,-42.03 122.07,-74.6 176.63,-129.61 50.58,-51.01 115.76,-105.59 151.04,-168.52 97.75,-174.37 17.43,-360.62 -21.42,-527.38l-13.31 0c-87.76,100.95 -166.5,186.05 -262.77,283.14 -57.87,58.37 -252.02,198.54 -323.08,236.14z"/>
  </g>
  <g id="_2469271801584">
   <path class="fil2" style="mask:url(#id4)" d="M2593.63 7000.14l-699.43 -2763.46c-401.95,-0.02 -806.9,171.06 -1096.75,387.28 -54.58,40.71 -83.03,70.07 -131.46,107.36 -89.02,68.57 -169.28,165.27 -241.32,253.37 -39.91,48.81 -71.25,92.91 -105.35,150.53 -350.22,591.7 -318.57,904.78 -318.57,1609.03 0,250.39 75.21,400.93 192.44,541.08 112.46,134.44 319.78,226.56 506.96,226.56l5185.77 0c187.87,0 394.63,-92.29 506.95,-226.56 241.28,-288.43 192.45,-553.83 192.45,-967.54 0,-325.06 -47.73,-608.47 -143.5,-845.89 -48.96,-121.36 -101.24,-225.84 -166.7,-327.99 -330.16,-515.24 -944.51,-907.25 -1583.29,-907.25l-691.36 2765.48c-132.84,-504.83 -232.34,-987.36 -359.53,-1492.82 -32.42,-128.82 -62.68,-257.47 -88.71,-373.29 -28,-124.63 0.48,-126.39 108.84,-309.58 44.64,-75.46 313.44,-529.89 331.37,-606.85l-1398.79 0c17.34,74.44 112.22,218.49 158.78,301.8l247.59 434.98c48.23,77.24 57.5,68.61 37.08,165.4 -119.42,566.36 -305.79,1287.42 -443.46,1878.35z"/>
   <path class="fil2" style="mask:url(#id6)" d="M1416.6 1814.36c0,373.04 43.71,620.34 202.14,923.71l128.69 212.49c303.84,456.95 894.65,808.47 1460.3,808.47 499.17,0 771.26,-75.01 1163.56,-337.59 453.7,-303.68 798.17,-909.12 798.17,-1470.61 0,-615.6 -190.85,-1035.26 -550.13,-1394.53 -164.59,-164.6 -310.21,-263.66 -530.02,-374.08 -862.57,-433.25 -2003.18,-77.51 -2490.89,892.81 -92.28,183.62 -181.82,471.67 -181.82,739.33z"/>
  </g>
 </g>
</svg>
