<svg xmlns="http://www.w3.org/2000/svg" width="112" height="21" viewBox="0 0 112 21"><g><g><g><g><text dominant-baseline="text-before-edge" style="font-kerning:normal" fill="#1f1f1f" font-family="'Rubik','Rubik-Regular'" font-size="25" letter-spacing="-1" transform="translate(32 -5)"><tspan>s</tspan></text></g></g><g><g><path d="M21.286 14.406L19.21 13.22l-7.495 4.28c-.44.252-.982.252-1.423 0l-7.494-4.28-2.077 1.186a.478.478 0 0 0 0 .83l10.043 5.74a.478.478 0 0 0 .475 0l10.043-5.74a.478.478 0 0 0 0-.83z"/></g><g><path d="M21.286 10.106L19.21 8.92l-7.495 4.28c-.44.252-.982.252-1.423 0L2.798 8.92.721 10.106a.478.478 0 0 0 0 .83l10.043 5.74a.478.478 0 0 0 .475 0l10.043-5.74a.478.478 0 0 0 0-.83z"/></g><g><path d="M21.282 5.802L11.24.063a.478.478 0 0 0-.475 0L.721 5.803a.478.478 0 0 0 0 .83l10.043 5.739a.478.478 0 0 0 .475 0l10.043-5.74a.478.478 0 0 0 0-.83z"/></g></g></g></g></svg>